<?xml version="1.0" encoding="UTF-8" standalone="no"?><!DOCTYPE svg PUBLIC "-//W3C//DTD SVG 1.1//EN" "http://www.w3.org/Graphics/SVG/1.1/DTD/svg11.dtd"><svg width="100%" height="100%" viewBox="0 0 256 256" version="1.1" xmlns="http://www.w3.org/2000/svg" xmlns:xlink="http://www.w3.org/1999/xlink" xml:space="preserve" xmlns:serif="http://www.serif.com/" style="fill-rule:evenodd;clip-rule:evenodd;stroke-linejoin:round;stroke-miterlimit:2;"><path d="M195.865,147.551c5.88,6.762 14.798,10.845 24.63,10.127c14.798,-1.078 26.787,-13.426 27.473,-28.224c0.784,-17.085 -12.806,-31.164 -29.694,-31.164c-8.853,-0 -16.791,3.854 -22.213,9.996c-8.788,9.898 -21.038,16.039 -34.3,16.039l-4.377,0c-7.546,0 -11.303,-9.114 -5.978,-14.439l1.568,-1.568c9.734,-9.734 23.127,-15.418 36.847,-14.471c8.951,0.621 18.13,-2.809 24.566,-10.257c9.701,-11.237 9.44,-28.42 -0.556,-39.396c-11.498,-12.642 -31.098,-12.968 -43.022,-1.013c-6.435,6.436 -9.31,15.06 -8.591,23.488c1.111,13.295 -4.377,26.296 -13.785,35.704l-2.254,2.254c-5.325,5.325 -14.439,1.568 -14.439,-5.978l0,-2.221c0,-13.785 5.423,-27.244 15.811,-36.293c6.762,-5.88 10.845,-14.798 10.127,-24.63c-1.078,-14.798 -13.426,-26.787 -28.224,-27.473c-17.085,-0.784 -31.164,12.806 -31.164,29.694c-0,8.853 3.854,16.791 9.996,22.213c9.898,8.788 16.039,21.038 16.039,34.3l0,4.377c0,7.546 -9.114,11.303 -14.439,5.978l-1.568,-1.568c-9.734,-9.734 -15.418,-23.127 -14.471,-36.847c0.621,-8.951 -2.809,-18.13 -10.257,-24.566c-11.237,-9.701 -28.42,-9.44 -39.396,0.556c-12.642,11.498 -12.968,31.098 -1.013,43.022c6.436,6.435 15.06,9.31 23.488,8.591c13.295,-1.111 26.296,4.377 35.704,13.785l2.254,2.254c5.325,5.325 1.568,14.439 -5.978,14.439l-2.221,-0c-13.785,-0 -27.244,-5.423 -36.293,-15.811c-5.88,-6.762 -14.798,-10.845 -24.63,-10.127c-14.798,1.078 -26.787,13.426 -27.473,28.224c-0.784,17.085 12.806,31.164 29.694,31.164c8.853,0 16.791,-3.854 22.213,-9.996c8.788,-9.898 21.038,-16.039 34.3,-16.039l4.377,-0c7.546,-0 11.303,9.114 5.978,14.439l-1.568,1.568c-9.734,9.734 -23.127,15.418 -36.847,14.471c-8.951,-0.621 -18.13,2.809 -24.566,10.257c-9.701,11.237 -9.44,28.42 0.556,39.396c11.498,12.642 31.098,12.968 43.022,1.013c6.435,-6.436 9.31,-15.06 8.591,-23.488c-1.111,-13.295 4.377,-26.296 13.785,-35.704l2.254,-2.254c5.325,-5.325 14.439,-1.568 14.439,5.978l-0,2.221c-0,13.785 -5.423,27.244 -15.811,36.293c-6.762,5.88 -10.845,14.798 -10.127,24.63c1.078,14.798 13.426,26.787 28.224,27.473c17.085,0.784 31.164,-12.806 31.164,-29.694c0,-8.853 -3.854,-16.791 -9.996,-22.213c-9.898,-8.788 -16.039,-21.038 -16.039,-34.3l-0,-4.377c-0,-7.546 9.114,-11.303 14.439,-5.978l1.568,1.568c9.734,9.734 15.418,23.127 14.471,36.847c-0.621,8.951 2.809,18.13 10.257,24.566c11.237,9.701 28.42,9.44 39.396,-0.556c12.642,-11.498 12.968,-31.098 1.013,-43.022c-6.436,-6.435 -15.06,-9.31 -23.488,-8.591c-13.295,1.111 -26.296,-4.377 -35.704,-13.785l-2.254,-2.254c-5.325,-5.325 -1.568,-14.439 5.978,-14.439l2.221,0c13.785,0 27.244,5.423 36.293,15.811Z" style="fill-rule:nonzero;"/></svg>