<?xml version="1.0" encoding="UTF-8"?>
<svg id="Layer_1" data-name="Layer 1" xmlns="http://www.w3.org/2000/svg" version="1.1" viewBox="0 0 283.46 283.46">
  <defs>
    <style>
      .cls-1 {
        fill: #d59278;
        stroke-width: 0px;
      }
    </style>
  </defs>
  <g>
    <path class="cls-1" d="M35.92,227.86v-12.28h-1.26v-1.26h1.26v-.68c0-.82.16-1.45.48-1.9.32-.44.86-.67,1.62-.67.35,0,.66.03.92.08s.4.09.42.09v1.26c-.26-.04-.5-.07-.7-.07-.46,0-.75.1-.87.29-.12.19-.17.45-.17.77v.81h1.75v1.26h-1.75v12.28h-1.69Z"/>
    <path class="cls-1" d="M43.72,227.86v-16.73h1.69v16.73h-1.69Z"/>
    <path class="cls-1" d="M52.88,228.03c-.66,0-1.18-.12-1.58-.36-.39-.24-.69-.58-.89-1.01-.2-.44-.33-.96-.39-1.56s-.09-1.27-.09-2v-4.86c0-.66.04-1.28.11-1.84.08-.56.22-1.05.43-1.47.21-.42.52-.74.91-.97.39-.23.91-.35,1.54-.35s1.15.12,1.53.35.65.57.83.99.3.92.35,1.5c.05.57.08,1.2.08,1.88v2.52h-4.09v2.82c0,.98.07,1.71.2,2.2s.48.73,1.05.73c.38,0,.64-.12.8-.35.16-.23.26-.57.3-1s.06-.94.06-1.54v-1.1h1.65v.54c0,.73-.02,1.39-.07,1.98s-.15,1.11-.33,1.54c-.18.43-.45.77-.84,1-.38.24-.91.35-1.58.35ZM51.63,219.6h2.4v-1.79c0-.6-.02-1.11-.05-1.52-.03-.41-.12-.72-.28-.93s-.41-.32-.77-.32c-.39,0-.68.12-.86.36-.19.24-.31.57-.37,1-.06.43-.08.92-.08,1.49v1.72Z"/>
    <path class="cls-1" d="M62.25,228.05c-.37,0-.73-.09-1.08-.28s-.64-.5-.87-.94c-.23-.44-.35-1.03-.35-1.78v-11.27h1.69v11.12c0,.55.11.96.33,1.24s.54.41.96.41c.48,0,.84-.16,1.08-.47.25-.32.37-.73.37-1.23v-11.05s1.7,0,1.7,0v14.09h-1.7v-1.43c-.13.43-.37.8-.74,1.13-.37.33-.83.49-1.39.49Z"/>
    <path class="cls-1" d="M70.82,227.86v-14.09h1.69v1.57c.16-.54.45-.97.85-1.28s.92-.46,1.54-.46c.01,0,.02.07.02.22,0,.14,0,.31,0,.5v.72c-.3,0-.6.04-.89.11s-.56.2-.82.38-.49.44-.71.76v11.56h-1.69Z"/>
    <path class="cls-1" d="M81.22,222.7c-.68,0-1.19-.2-1.54-.59s-.53-.96-.53-1.71.18-1.31.53-1.7c.35-.39.86-.59,1.54-.59s1.2.2,1.55.59c.35.39.53.96.53,1.7s-.18,1.32-.53,1.71-.87.59-1.55.59Z"/>
    <path class="cls-1" d="M90.42,227.86l-2.08-14.09h1.54l1.1,7.82.43,3.73h.06l.38-3.74,1-7.81h1.55l-2.08,14.09h-1.88Z"/>
    <path class="cls-1" d="M98.25,212.48v-1.59h1.7v1.59h-1.7ZM98.25,227.86v-14.09h1.7v14.09h-1.7Z"/>
    <path class="cls-1" d="M104.75,227.86v-14.09h1.69v1.45c.12-.42.39-.8.81-1.13.41-.33.9-.49,1.46-.49.66,0,1.18.24,1.58.72.39.48.59,1.23.59,2.25v11.3h-1.69v-11.33c0-.54-.12-.92-.37-1.15s-.55-.34-.91-.34c-.26,0-.5.05-.72.15-.23.1-.41.27-.54.5s-.21.54-.21.94v11.22h-1.69Z"/>
    <path class="cls-1" d="M118.04,227.95c-.6,0-1.05-.07-1.36-.21s-.51-.37-.61-.68c-.1-.31-.15-.73-.15-1.26v-10.68h-1.33v-1.28h1.33v-2.51h1.7v2.51h1.59v1.28h-1.59v10.61c0,.24.03.43.09.54s.2.2.43.23c.23.04.58.06,1.07.06v1.38h-1.16Z"/>
    <path class="cls-1" d="M125.08,227.98c-.8,0-1.39-.32-1.77-.97s-.57-1.55-.57-2.72v-1.57c0-.56.11-1.04.32-1.42.21-.38.51-.71.89-.98.38-.27.83-.52,1.34-.74.51-.23,1.07-.46,1.67-.7v-1.03c0-.65-.02-1.18-.06-1.59s-.14-.71-.3-.91c-.16-.19-.43-.29-.79-.29s-.62.1-.8.29c-.18.19-.29.49-.34.91-.05.42-.08.96-.08,1.64v.42h-1.69v-.39c0-.59.03-1.14.09-1.66s.18-.98.38-1.37.48-.71.87-.93c.39-.23.92-.34,1.58-.34s1.16.11,1.54.32c.38.21.66.52.84.93s.31.92.36,1.52c.06.6.08,1.3.08,2.08v9.4h-1.7v-1.15c-.05.16-.15.33-.31.53s-.36.37-.62.51c-.26.14-.58.22-.96.22ZM125.49,226.6c.36,0,.67-.11.93-.32.27-.21.45-.42.54-.63v-5.59c-.53.23-.96.44-1.3.62-.33.18-.59.36-.77.56-.18.19-.3.43-.37.7-.07.27-.1.62-.1,1.04v1.22c0,.86.07,1.48.21,1.85.14.37.42.55.84.55Z"/>
    <path class="cls-1" d="M135.86,230.02c-.59.02-1.14-.04-1.64-.21-.51-.16-.93-.38-1.27-.65l.62-1.21c.26.18.57.35.93.49s.81.21,1.32.2c.42-.01.75-.18.99-.49.24-.31.36-.74.36-1.27v-1.44c-.19.46-.44.77-.75.92-.31.15-.66.22-1.04.22-.65,0-1.15-.2-1.51-.6-.35-.4-.6-.94-.73-1.63-.13-.69-.2-1.46-.2-2.33v-3.83c0-.88.08-1.66.25-2.36.17-.7.44-1.25.83-1.66.39-.41.9-.6,1.55-.59.36,0,.69.1.97.27.28.17.49.45.62.84v-.94h1.69v12.95c0,.33-.04.69-.13,1.06s-.23.73-.45,1.06c-.21.33-.51.6-.91.82-.39.22-.9.34-1.52.36ZM136.02,225.22c.26,0,.48-.08.65-.24.17-.16.29-.46.38-.9.08-.44.12-1.08.12-1.93v-4.24c0-.96-.08-1.67-.23-2.15-.15-.48-.49-.71-1.02-.71-.38,0-.67.12-.85.36s-.3.57-.36,1-.08.92-.08,1.48v4.27c0,1.03.09,1.8.28,2.3s.56.75,1.11.75Z"/>
    <path class="cls-1" d="M146.24,228.03c-.66,0-1.18-.12-1.58-.36-.39-.24-.69-.58-.89-1.01-.2-.44-.33-.96-.39-1.56s-.09-1.27-.09-2v-4.86c0-.66.04-1.28.11-1.84.08-.56.22-1.05.43-1.47.21-.42.52-.74.91-.97.39-.23.91-.35,1.54-.35s1.15.12,1.53.35c.37.23.65.57.83.99s.3.92.35,1.5c.05.57.08,1.2.08,1.88v2.52h-4.09v2.82c0,.98.07,1.71.2,2.2.13.49.48.73,1.05.73.38,0,.64-.12.8-.35.16-.23.26-.57.3-1,.04-.43.06-.94.06-1.54v-1.1h1.65v.54c0,.73-.02,1.39-.07,1.98s-.15,1.11-.33,1.54c-.17.43-.45.77-.84,1-.38.24-.91.35-1.58.35ZM144.99,219.6h2.4v-1.79c0-.6-.02-1.11-.05-1.52-.03-.41-.12-.72-.28-.93s-.41-.32-.77-.32c-.39,0-.68.12-.86.36-.19.24-.31.57-.37,1-.06.43-.08.92-.08,1.49v1.72Z"/>
    <path class="cls-1" d="M156.02,222.7c-.68,0-1.19-.2-1.54-.59s-.53-.96-.53-1.71.17-1.31.53-1.7c.35-.39.86-.59,1.54-.59s1.2.2,1.55.59c.35.39.53.96.53,1.7s-.17,1.32-.53,1.71-.87.59-1.55.59Z"/>
    <path class="cls-1" d="M166.1,227.98c-.8,0-1.39-.32-1.77-.97-.38-.64-.57-1.55-.57-2.72v-1.57c0-.56.11-1.04.32-1.42.21-.38.51-.71.89-.98.38-.27.83-.52,1.34-.74.51-.23,1.07-.46,1.67-.7v-1.03c0-.65-.02-1.18-.06-1.59-.04-.41-.14-.71-.3-.91s-.43-.29-.79-.29-.62.1-.8.29c-.18.19-.29.49-.34.91-.05.42-.08.96-.08,1.64v.42h-1.69v-.39c0-.59.03-1.14.09-1.66s.18-.98.38-1.37c.19-.39.48-.71.87-.93s.92-.34,1.58-.34,1.17.11,1.54.32c.38.21.66.52.84.93s.31.92.36,1.52c.06.6.08,1.3.08,2.08v9.4h-1.7v-1.15c-.05.16-.15.33-.3.53s-.36.37-.62.51c-.26.14-.58.22-.96.22ZM166.51,226.6c.36,0,.67-.11.93-.32.27-.21.45-.42.54-.63v-5.59c-.53.23-.96.44-1.3.62-.33.18-.59.36-.76.56-.18.19-.3.43-.37.7-.07.27-.1.62-.1,1.04v1.22c0,.86.07,1.48.21,1.85.14.37.42.55.84.55Z"/>
    <path class="cls-1" d="M176.94,228.03c-.66,0-1.19-.12-1.59-.36-.39-.24-.69-.58-.89-1.01s-.33-.96-.39-1.56-.09-1.27-.09-2v-4.78c0-.9.07-1.71.21-2.41.14-.71.43-1.27.85-1.68s1.08-.62,1.95-.62c.63,0,1.12.11,1.5.32.37.22.65.52.83.92.18.4.3.88.36,1.43.06.55.08,1.17.08,1.84v.73h-1.69v-1.07c0-.59-.02-1.08-.05-1.48-.03-.4-.12-.7-.27-.9s-.41-.31-.77-.31c-.39,0-.67.11-.86.33-.18.22-.31.54-.37.95s-.09.9-.09,1.46v5.84c0,.65.02,1.18.08,1.6.05.42.16.74.34.94.18.2.46.3.83.3s.63-.11.79-.33c.16-.22.26-.54.3-.96.04-.42.06-.92.06-1.51v-1.23h1.69v.69c0,.71-.03,1.37-.08,1.95-.05.59-.17,1.1-.35,1.53s-.46.76-.84,1c-.38.24-.9.35-1.55.35Z"/>
    <path class="cls-1" d="M186.79,228.03c-.66,0-1.19-.12-1.59-.36-.39-.24-.69-.58-.89-1.01s-.33-.96-.39-1.56-.09-1.27-.09-2v-4.78c0-.9.07-1.71.21-2.41.14-.71.43-1.27.85-1.68s1.08-.62,1.95-.62c.63,0,1.12.11,1.5.32.37.22.65.52.83.92.18.4.3.88.36,1.43.06.55.08,1.17.08,1.84v.73h-1.69v-1.07c0-.59-.02-1.08-.05-1.48-.03-.4-.12-.7-.27-.9s-.41-.31-.77-.31c-.39,0-.67.11-.86.33-.18.22-.31.54-.37.95s-.09.9-.09,1.46v5.84c0,.65.02,1.18.08,1.6.05.42.16.74.34.94.18.2.46.3.83.3s.63-.11.79-.33c.16-.22.26-.54.3-.96.04-.42.06-.92.06-1.51v-1.23h1.69v.69c0,.71-.03,1.37-.08,1.95-.05.59-.17,1.1-.35,1.53s-.46.76-.84,1c-.38.24-.9.35-1.55.35Z"/>
    <path class="cls-1" d="M196.63,228.03c-.66,0-1.18-.12-1.58-.36-.39-.24-.69-.58-.89-1.01s-.33-.96-.38-1.56-.09-1.27-.09-2v-4.86c0-.66.04-1.28.11-1.84.08-.56.22-1.05.43-1.47.21-.42.52-.74.91-.97s.91-.35,1.54-.35,1.15.12,1.53.35c.37.23.65.57.83.99s.3.92.35,1.5c.05.57.08,1.2.08,1.88v2.52h-4.09v2.82c0,.98.07,1.71.2,2.2.13.49.48.73,1.05.73.38,0,.64-.12.8-.35.16-.23.26-.57.29-1,.04-.43.06-.94.06-1.54v-1.1h1.65v.54c0,.73-.02,1.39-.07,1.98s-.15,1.11-.33,1.54c-.18.43-.45.77-.84,1-.38.24-.91.35-1.58.35ZM195.39,219.6h2.4v-1.79c0-.6-.02-1.11-.05-1.52s-.12-.72-.28-.93-.41-.32-.76-.32c-.39,0-.68.12-.86.36-.19.24-.31.57-.37,1s-.08.92-.08,1.49v1.72Z"/>
    <path class="cls-1" d="M206.3,228.05c-1,0-1.74-.32-2.23-.95-.49-.63-.74-1.67-.74-3.1v-1.13h1.66v1.01c0,.86.1,1.53.29,1.99.19.46.5.69.91.69s.73-.14.93-.41c.19-.27.29-.77.29-1.48,0-.34-.04-.67-.12-1s-.22-.66-.41-1-.48-.67-.84-1.02l-1.02-.96c-.61-.59-1.06-1.2-1.35-1.84-.29-.64-.43-1.31-.43-2.02,0-1.1.26-1.92.77-2.44.52-.53,1.21-.79,2.09-.79.58,0,1.08.14,1.5.41.42.27.73.73.95,1.37s.32,1.51.32,2.62v.76h-1.6v-1.04c0-.88-.09-1.53-.26-1.97-.17-.44-.47-.65-.89-.65s-.72.15-.91.45-.29.76-.3,1.37c0,.29.03.58.1.87s.21.58.4.88c.19.3.46.61.81.94l1,.96c.66.63,1.15,1.28,1.45,1.96.3.68.46,1.41.46,2.17,0,1.02-.23,1.83-.68,2.44-.45.6-1.17.91-2.14.91Z"/>
    <path class="cls-1" d="M215.52,228.05c-1,0-1.74-.32-2.23-.95-.49-.63-.74-1.67-.74-3.1v-1.13h1.66v1.01c0,.86.1,1.53.29,1.99s.5.69.91.69.73-.14.92-.41c.19-.27.29-.77.29-1.48,0-.34-.04-.67-.12-1s-.22-.66-.41-1-.48-.67-.84-1.02l-1.02-.96c-.61-.59-1.06-1.2-1.35-1.84-.29-.64-.43-1.31-.43-2.02,0-1.1.26-1.92.78-2.44.52-.53,1.21-.79,2.09-.79.58,0,1.08.14,1.5.41s.73.73.95,1.37.32,1.51.32,2.62v.76h-1.6v-1.04c0-.88-.09-1.53-.26-1.97-.18-.44-.47-.65-.89-.65s-.72.15-.91.45c-.19.3-.29.76-.3,1.37,0,.29.03.58.1.87s.21.58.4.88c.19.3.46.61.81.94l1,.96c.66.63,1.15,1.28,1.45,1.96.3.68.46,1.41.46,2.17,0,1.02-.23,1.83-.68,2.44-.45.6-1.17.91-2.14.91Z"/>
    <path class="cls-1" d="M224.99,228.03c-.66,0-1.18-.12-1.58-.35-.39-.23-.69-.57-.9-1-.21-.44-.34-.95-.41-1.55s-.1-1.26-.1-2v-4.87c0-.88.07-1.67.22-2.38s.43-1.26.86-1.66c.43-.41,1.07-.61,1.91-.61.64,0,1.15.12,1.54.35.39.23.68.56.89.98.2.42.34.92.41,1.48s.1,1.18.1,1.84v4.87c0,.72-.03,1.38-.09,1.97s-.19,1.11-.38,1.55c-.19.44-.49.78-.88,1.02s-.92.36-1.59.36ZM224.99,226.6c.36,0,.63-.12.81-.37.17-.25.29-.59.35-1.04.06-.44.09-.96.09-1.55v-5.74c0-.57-.03-1.07-.09-1.49-.06-.43-.18-.76-.35-1-.18-.24-.44-.36-.81-.36-.38,0-.67.12-.85.36-.19.24-.31.57-.36,1-.06.43-.08.92-.08,1.49v5.74c0,.59.03,1.1.08,1.55.06.45.18.79.37,1.04.19.25.47.37.85.37Z"/>
    <path class="cls-1" d="M232.49,212.48v-1.59h1.7v1.59h-1.7ZM232.49,227.86v-14.09h1.7v14.09h-1.7Z"/>
    <path class="cls-1" d="M239.01,227.86v-14.09h1.69v1.57c.16-.54.45-.97.85-1.28.4-.31.92-.46,1.54-.46.01,0,.02.07.02.22,0,.14,0,.31,0,.5v.72c-.3,0-.6.04-.89.11s-.56.2-.82.38-.5.44-.71.76v11.56h-1.69Z"/>
    <path class="cls-1" d="M249.49,228.03c-.66,0-1.18-.12-1.58-.36-.39-.24-.69-.58-.89-1.01-.2-.44-.33-.96-.39-1.56s-.09-1.27-.09-2v-4.86c0-.66.04-1.28.11-1.84.08-.56.22-1.05.43-1.47.21-.42.52-.74.91-.97.39-.23.91-.35,1.54-.35s1.15.12,1.53.35c.37.23.65.57.83.99s.3.92.35,1.5c.05.57.08,1.2.08,1.88v2.52h-4.09v2.82c0,.98.07,1.71.2,2.2.13.49.48.73,1.05.73.38,0,.64-.12.8-.35.16-.23.26-.57.3-1,.04-.43.06-.94.06-1.54v-1.1h1.65v.54c0,.73-.02,1.39-.07,1.98s-.15,1.11-.33,1.54c-.17.43-.45.77-.84,1-.38.24-.91.35-1.58.35ZM248.24,219.6h2.4v-1.79c0-.6-.02-1.11-.05-1.52-.03-.41-.12-.72-.28-.93s-.41-.32-.77-.32c-.39,0-.68.12-.86.36-.19.24-.31.57-.37,1-.06.43-.08.92-.08,1.49v1.72Z"/>
  </g>
  <g>
    <path class="cls-1" d="M41.11,184.28c-1.31,0-2.51-.31-3.6-.93-1.09-.62-1.95-1.58-2.6-2.88-.64-1.3-.96-2.95-.96-4.97,0-2.22.42-4.06,1.25-5.53.83-1.46,1.86-2.68,3.09-3.67,1.23-.98,2.46-1.87,3.69-2.67,1.23-.79,2.26-1.62,3.09-2.47.83-.85,1.25-1.9,1.25-3.14,0-1.78-.12-3.44-.35-4.98s-.64-2.78-1.21-3.72c-.57-.94-1.4-1.4-2.47-1.4s-2.11.42-2.95,1.25c-.84.83-1.26,1.8-1.26,2.9,0,.56.09,1.05.26,1.46.18.41.34.83.49,1.25.15.42.23.92.23,1.51,0,.87-.19,1.57-.56,2.12-.37.55-.94.83-1.68.83s-1.3-.32-1.67-.95c-.36-.63-.54-1.51-.54-2.63,0-1.64.36-3.15,1.07-4.53.71-1.38,1.71-2.49,3-3.32,1.29-.83,2.77-1.25,4.46-1.25s3.12.42,4.39,1.25c1.26.83,2.26,2.12,2.98,3.88.73,1.75,1.09,4.02,1.09,6.81v21.41c0,.94.13,1.6.39,1.98.26.39.6.58,1.02.58.3,0,.6-.08.9-.25.29-.16.52-.32.68-.46l.63,1.05c-.23.28-.7.55-1.4.81-.7.26-1.53.39-2.49.39-.84,0-1.6-.13-2.28-.4-.68-.27-1.23-.69-1.65-1.26-.42-.57-.64-1.29-.67-2.16-.14.49-.42,1.06-.84,1.7-.42.64-1.02,1.21-1.79,1.68-.77.48-1.75.72-2.95.72ZM42.73,182.24c.68,0,1.29-.25,1.82-.75.54-.5.97-1.11,1.28-1.82s.47-1.4.47-2.05v-16.5c-.07.66-.46,1.36-1.16,2.11-.7.75-1.5,1.63-2.39,2.63-.89,1.01-1.67,2.23-2.35,3.67-.68,1.44-1.02,3.17-1.02,5.18,0,2.39.25,4.24.74,5.56.49,1.32,1.36,1.98,2.6,1.98Z"/>
    <path class="cls-1" d="M63.99,183.68l-6.81-35.66h-2.7v-1.23h10.88v1.23h-2.53l4.07,23.83,4.07-23.83h-2.56v-1.23h6.46v1.23h-2.53l-6.49,35.66h-1.86Z"/>
    <path class="cls-1" d="M86.7,184.28c-1.71,0-3.16-.53-4.37-1.58-1.21-1.05-2.19-2.49-2.97-4.3-.77-1.81-1.34-3.87-1.7-6.16-.36-2.29-.54-4.68-.54-7.16,0-3.13.26-5.87.79-8.19.53-2.33,1.23-4.26,2.11-5.79s1.88-2.67,3-3.42,2.28-1.12,3.47-1.12c1.43,0,2.67.43,3.74,1.3,1.06.87,1.95,2.04,2.67,3.53.71,1.49,1.25,3.17,1.61,5.04.36,1.87.54,3.8.54,5.79,0,.42,0,.84-.02,1.25-.01.41-.03.83-.05,1.25h-13.02v-1.23h7.83c0-3.25-.09-6.05-.28-8.41-.19-2.35-.52-4.16-.98-5.42-.47-1.26-1.15-1.89-2.04-1.89-.82,0-1.53.61-2.14,1.82-.61,1.22-1.07,3.05-1.39,5.51-.32,2.46-.47,5.56-.47,9.3,0,2.5.05,4.87.14,7.09.09,2.22.3,4.19.63,5.91s.82,3.07,1.47,4.05c.65.98,1.53,1.47,2.63,1.47,1.71,0,3.05-.47,4.04-1.4.98-.93,1.65-1.92,2-2.95l1.02.63c-.47,1.36-1.36,2.54-2.67,3.56-1.31,1.02-2.99,1.53-5.05,1.53Z"/>
    <path class="cls-1" d="M109.12,184.28c-1.59,0-3.01-.53-4.25-1.58-1.24-1.05-2.3-2.49-3.18-4.32s-1.54-3.9-2-6.21c-.46-2.32-.68-4.75-.68-7.3,0-3.11.31-5.81.93-8.11.62-2.29,1.44-4.19,2.47-5.7,1.03-1.51,2.15-2.64,3.37-3.39,1.22-.75,2.43-1.12,3.65-1.12,1.47,0,2.73.43,3.75,1.28,1.03.85,1.81,1.97,2.35,3.35.54,1.38.81,2.86.81,4.42,0,1.19-.19,2.09-.56,2.7-.37.61-.91.91-1.61.91s-1.29-.27-1.68-.81c-.4-.54-.6-1.25-.6-2.14,0-.63.1-1.19.32-1.68.21-.49.42-.96.63-1.42.21-.46.32-.93.32-1.42,0-1.31-.33-2.29-.98-2.93-.66-.64-1.49-.97-2.49-.97s-1.77.52-2.42,1.56c-.66,1.04-1.18,2.4-1.58,4.07-.4,1.67-.68,3.49-.86,5.46-.18,1.97-.26,3.87-.26,5.72s.07,3.91.21,6.04c.14,2.13.4,4.12.77,5.97.37,1.85.91,3.35,1.61,4.51s1.6,1.74,2.7,1.74c1.4,0,2.51-.46,3.33-1.39.82-.92,1.36-1.88,1.61-2.86l.98.67c-.44,1.29-1.22,2.43-2.32,3.44-1.1,1.01-2.55,1.51-4.35,1.51Z"/>
    <path class="cls-1" d="M129.3,201.09v-1.23h3.23v-51.83h-3.23v-1.23h8.49v4.53c.16-.54.44-1.18.82-1.91.39-.74.92-1.39,1.61-1.97.69-.57,1.57-.86,2.65-.86,1.36,0,2.63.63,3.81,1.88,1.18,1.25,2.14,3.25,2.88,6,.74,2.75,1.11,6.38,1.11,10.9s-.39,8.33-1.16,11.09c-.77,2.76-1.78,4.75-3.04,5.97-1.25,1.22-2.61,1.82-4.09,1.82-1.01,0-1.82-.27-2.46-.81s-1.11-1.18-1.44-1.91c-.33-.74-.54-1.37-.63-1.91v20.25h3.3v1.23h-11.86ZM141.65,182.63c.63,0,1.18-.4,1.63-1.21.46-.81.84-1.96,1.14-3.46.3-1.5.53-3.3.67-5.4.14-2.11.21-4.46.21-7.05,0-2.36-.07-4.57-.21-6.62-.14-2.05-.36-3.85-.65-5.4-.29-1.56-.66-2.77-1.11-3.65-.44-.88-.96-1.32-1.54-1.32-.77,0-1.43.39-1.97,1.16-.54.77-.96,1.71-1.28,2.83s-.54,2.19-.68,3.25v18.25c.07,1.36.25,2.7.54,4.02.29,1.32.71,2.42,1.26,3.3.55.88,1.21,1.32,1.98,1.32Z"/>
    <path class="cls-1" d="M153.1,183.54v-1.23h2.91v-50.18h-2.91v-1.23h8.14v51.41h2.95v1.23h-11.09Z"/>
    <path class="cls-1" d="M174.82,184.28c-1.31,0-2.51-.31-3.6-.93-1.09-.62-1.95-1.58-2.6-2.88-.64-1.3-.96-2.95-.96-4.97,0-2.22.42-4.06,1.25-5.53.83-1.46,1.86-2.68,3.09-3.67s2.46-1.87,3.68-2.67c1.23-.79,2.26-1.62,3.09-2.47.83-.85,1.25-1.9,1.25-3.14,0-1.78-.12-3.44-.35-4.98-.23-1.54-.64-2.78-1.21-3.72s-1.4-1.4-2.47-1.4-2.11.42-2.95,1.25c-.84.83-1.26,1.8-1.26,2.9,0,.56.09,1.05.26,1.46.17.41.34.83.49,1.25.15.42.23.92.23,1.51,0,.87-.19,1.57-.56,2.12-.37.55-.94.83-1.68.83s-1.3-.32-1.67-.95c-.36-.63-.54-1.51-.54-2.63,0-1.64.36-3.15,1.07-4.53.71-1.38,1.71-2.49,3-3.32,1.29-.83,2.77-1.25,4.46-1.25s3.12.42,4.39,1.25c1.26.83,2.26,2.12,2.98,3.88.72,1.75,1.09,4.02,1.09,6.81v21.41c0,.94.13,1.6.39,1.98.26.39.6.58,1.02.58.3,0,.6-.08.9-.25.29-.16.52-.32.68-.46l.63,1.05c-.23.28-.7.55-1.4.81-.7.26-1.53.39-2.49.39-.84,0-1.6-.13-2.28-.4s-1.23-.69-1.65-1.26c-.42-.57-.64-1.29-.67-2.16-.14.49-.42,1.06-.84,1.7s-1.02,1.21-1.79,1.68c-.77.48-1.75.72-2.95.72ZM176.43,182.24c.68,0,1.29-.25,1.82-.75.54-.5.97-1.11,1.28-1.82.32-.71.47-1.4.47-2.05v-16.5c-.07.66-.46,1.36-1.16,2.11-.7.75-1.5,1.63-2.39,2.63-.89,1.01-1.67,2.23-2.35,3.67-.68,1.44-1.02,3.17-1.02,5.18,0,2.39.25,4.24.74,5.56.49,1.32,1.36,1.98,2.6,1.98Z"/>
    <path class="cls-1" d="M190.4,183.54v-1.23h3.3v-34.29h-3.3v-1.23h8.56v35.52h3.37v1.23h-11.93ZM196.29,139.99c-1.05,0-1.94-.36-2.67-1.07-.73-.71-1.09-1.58-1.09-2.61s.36-1.91,1.09-2.63c.72-.73,1.61-1.09,2.67-1.09.98,0,1.83.36,2.54,1.09.71.73,1.07,1.6,1.07,2.63s-.36,1.9-1.07,2.61c-.71.71-1.56,1.07-2.54,1.07Z"/>
    <path class="cls-1" d="M212.65,184.31c-1.08,0-1.98-.16-2.72-.47-.74-.32-1.35-.62-1.84-.93-.49-.3-.91-.46-1.26-.46-.26,0-.44.09-.54.28-.11.19-.17.46-.19.81h-1.02v-10.42h1.23c.12,1.33.33,2.6.63,3.81.3,1.21.72,2.27,1.25,3.19.53.92,1.16,1.65,1.89,2.18.74.53,1.6.79,2.58.79s1.77-.27,2.35-.81,1.01-1.22,1.26-2.05.39-1.68.39-2.54c0-1.12-.21-2.25-.63-3.39-.42-1.13-1.03-2.29-1.83-3.46-.8-1.17-1.74-2.34-2.84-3.51-1.78-1.94-3.25-3.93-4.4-5.97s-1.74-4.36-1.74-6.98c0-1.75.35-3.21,1.05-4.37.7-1.16,1.61-2.02,2.74-2.6,1.12-.57,2.32-.86,3.58-.86.89,0,1.63.11,2.23.33.6.22,1.09.45,1.47.67.39.22.7.33.93.33.21,0,.36-.09.46-.28.09-.19.15-.46.17-.81h1.09v10.11h-1.23c-.12-1.43-.3-2.7-.54-3.83-.25-1.12-.57-2.08-.97-2.86-.4-.78-.89-1.39-1.47-1.81-.58-.42-1.29-.63-2.11-.63-1.17,0-2.13.42-2.88,1.26-.75.84-1.12,2.05-1.12,3.62s.47,3.15,1.42,4.68c.95,1.53,2.22,3.15,3.81,4.86,1.31,1.4,2.45,2.79,3.42,4.16.97,1.37,1.72,2.78,2.25,4.23.53,1.45.79,3.02.79,4.7,0,1.85-.32,3.45-.95,4.79-.63,1.35-1.52,2.39-2.67,3.12-1.15.74-2.49,1.11-4.04,1.11Z"/>
    <path class="cls-1" d="M223.07,183.54v-1.23h3.3v-34.29h-3.3v-1.23h8.56v35.52h3.37v1.23h-11.93ZM228.97,139.99c-1.05,0-1.94-.36-2.67-1.07-.72-.71-1.09-1.58-1.09-2.61s.36-1.91,1.09-2.63c.73-.73,1.61-1.09,2.67-1.09.98,0,1.83.36,2.54,1.09.71.73,1.07,1.6,1.07,2.63s-.36,1.9-1.07,2.61c-.71.71-1.56,1.07-2.54,1.07Z"/>
    <path class="cls-1" d="M236.83,183.54v-1.23h3.26v-34.29h-3.26v-1.23h8.39l.07,4.11c.07-.3.29-.81.67-1.51.37-.7.92-1.35,1.63-1.95s1.57-.89,2.58-.89c1.15,0,2.1.42,2.86,1.25.76.83,1.33,1.94,1.72,3.32.39,1.38.58,2.9.58,4.56,0,1.12-.19,2-.58,2.62s-.94.93-1.67.93-1.24-.29-1.61-.88c-.37-.58-.56-1.33-.56-2.25,0-.58.1-1.11.3-1.58.2-.47.39-.94.58-1.4.19-.47.28-.99.28-1.58,0-1.24-.22-2.15-.67-2.72s-1.01-.86-1.68-.86c-.89,0-1.66.43-2.32,1.28-.66.85-1.16,1.91-1.51,3.18-.35,1.26-.53,2.52-.53,3.75v26.15h3.33v1.23h-11.86Z"/>
  </g>
  <path class="cls-1" d="M162.06,84.03c1.8,2.07,4.53,3.32,7.54,3.1,4.53-.33,8.2-4.11,8.41-8.64.24-5.23-3.92-9.54-9.09-9.54-2.71,0-5.14,1.18-6.8,3.06-2.69,3.03-6.44,4.91-10.5,4.91h-1.34c-2.31,0-3.46-2.79-1.83-4.42l.48-.48c2.98-2.98,7.08-4.72,11.28-4.43,2.74.19,5.55-.86,7.52-3.14,2.97-3.44,2.89-8.7-.17-12.06-3.52-3.87-9.52-3.97-13.17-.31-1.97,1.97-2.85,4.61-2.63,7.19.34,4.07-1.34,8.05-4.22,10.93l-.69.69c-1.63,1.63-4.42.48-4.42-1.83v-.68c0-4.22,1.66-8.34,4.84-11.11,2.07-1.8,3.32-4.53,3.1-7.54-.33-4.53-4.11-8.2-8.64-8.41-5.23-.24-9.54,3.92-9.54,9.09,0,2.71,1.18,5.14,3.06,6.8,3.03,2.69,4.91,6.44,4.91,10.5v1.34c0,2.31-2.79,3.46-4.42,1.83l-.48-.48c-2.98-2.98-4.72-7.08-4.43-11.28.19-2.74-.86-5.55-3.14-7.52-3.44-2.97-8.7-2.89-12.06.17-3.87,3.52-3.97,9.52-.31,13.17,1.97,1.97,4.61,2.85,7.19,2.63,4.07-.34,8.05,1.34,10.93,4.22l.69.69c1.63,1.63.48,4.42-1.83,4.42h-.68c-4.22,0-8.34-1.66-11.11-4.84-1.8-2.07-4.53-3.32-7.54-3.1-4.53.33-8.2,4.11-8.41,8.64-.24,5.23,3.92,9.54,9.09,9.54,2.71,0,5.14-1.18,6.8-3.06,2.69-3.03,6.44-4.91,10.5-4.91h1.34c2.31,0,3.46,2.79,1.83,4.42l-.48.48c-2.98,2.98-7.08,4.72-11.28,4.43-2.74-.19-5.55.86-7.52,3.14-2.97,3.44-2.89,8.7.17,12.06,3.52,3.87,9.52,3.97,13.17.31,1.97-1.97,2.85-4.61,2.63-7.19-.34-4.07,1.34-8.05,4.22-10.93l.69-.69c1.63-1.63,4.42-.48,4.42,1.83v.68c0,4.22-1.66,8.34-4.84,11.11-2.07,1.8-3.32,4.53-3.1,7.54.33,4.53,4.11,8.2,8.64,8.41,5.23.24,9.54-3.92,9.54-9.09,0-2.71-1.18-5.14-3.06-6.8-3.03-2.69-4.91-6.44-4.91-10.5v-1.34c0-2.31,2.79-3.46,4.42-1.83l.48.48c2.98,2.98,4.72,7.08,4.43,11.28-.19,2.74.86,5.55,3.14,7.52,3.44,2.97,8.7,2.89,12.06-.17,3.87-3.52,3.97-9.52.31-13.17-1.97-1.97-4.61-2.85-7.19-2.63-4.07.34-8.05-1.34-10.93-4.22l-.69-.69c-1.63-1.63-.48-4.42,1.83-4.42h.68c4.22,0,8.34,1.66,11.11,4.84Z"/>
</svg>