<?xml version="1.0" encoding="UTF-8" standalone="no"?><!DOCTYPE svg PUBLIC "-//W3C//DTD SVG 1.1//EN" "http://www.w3.org/Graphics/SVG/1.1/DTD/svg11.dtd"><svg width="100%" height="100%" viewBox="0 0 222 71" version="1.1" xmlns="http://www.w3.org/2000/svg" xmlns:xlink="http://www.w3.org/1999/xlink" xml:space="preserve" xmlns:serif="http://www.serif.com/" style="fill-rule:evenodd;clip-rule:evenodd;stroke-linejoin:round;stroke-miterlimit:2;"><g><path d="M7.16,53.38c-1.31,-0 -2.51,-0.31 -3.6,-0.93c-1.09,-0.62 -1.95,-1.58 -2.6,-2.88c-0.64,-1.3 -0.96,-2.95 -0.96,-4.97c0,-2.22 0.42,-4.06 1.25,-5.53c0.83,-1.46 1.86,-2.68 3.09,-3.67c1.23,-0.98 2.46,-1.87 3.69,-2.67c1.23,-0.79 2.26,-1.62 3.09,-2.47c0.83,-0.85 1.25,-1.9 1.25,-3.14c-0,-1.78 -0.12,-3.44 -0.35,-4.98c-0.23,-1.54 -0.64,-2.78 -1.21,-3.72c-0.57,-0.94 -1.4,-1.4 -2.47,-1.4c-1.07,0 -2.11,0.42 -2.95,1.25c-0.84,0.83 -1.26,1.8 -1.26,2.9c-0,0.56 0.09,1.05 0.26,1.46c0.18,0.41 0.34,0.83 0.49,1.25c0.15,0.42 0.23,0.92 0.23,1.51c-0,0.87 -0.19,1.57 -0.56,2.12c-0.37,0.55 -0.94,0.83 -1.68,0.83c-0.74,0 -1.3,-0.32 -1.67,-0.95c-0.36,-0.63 -0.54,-1.51 -0.54,-2.63c-0,-1.64 0.36,-3.15 1.07,-4.53c0.71,-1.38 1.71,-2.49 3,-3.32c1.29,-0.83 2.77,-1.25 4.46,-1.25c1.69,0 3.12,0.42 4.39,1.25c1.26,0.83 2.26,2.12 2.98,3.88c0.73,1.75 1.09,4.02 1.09,6.81l-0,21.41c-0,0.94 0.13,1.6 0.39,1.98c0.26,0.39 0.6,0.58 1.02,0.58c0.3,0 0.6,-0.08 0.9,-0.25c0.29,-0.16 0.52,-0.32 0.68,-0.46l0.63,1.05c-0.23,0.28 -0.7,0.55 -1.4,0.81c-0.7,0.26 -1.53,0.39 -2.49,0.39c-0.84,0 -1.6,-0.13 -2.28,-0.4c-0.68,-0.27 -1.23,-0.69 -1.65,-1.26c-0.42,-0.57 -0.64,-1.29 -0.67,-2.16c-0.14,0.49 -0.42,1.06 -0.84,1.7c-0.42,0.64 -1.02,1.21 -1.79,1.68c-0.77,0.48 -1.75,0.72 -2.95,0.72l-0.04,-0.01Zm1.62,-2.04c0.68,-0 1.29,-0.25 1.82,-0.75c0.54,-0.5 0.97,-1.11 1.28,-1.82c0.31,-0.71 0.47,-1.4 0.47,-2.05l0,-16.5c-0.07,0.66 -0.46,1.36 -1.16,2.11c-0.7,0.75 -1.5,1.63 -2.39,2.63c-0.89,1.01 -1.67,2.23 -2.35,3.67c-0.68,1.44 -1.02,3.17 -1.02,5.18c0,2.39 0.25,4.24 0.74,5.56c0.49,1.32 1.36,1.98 2.6,1.98l0.01,-0.01Z" style="fill:#fff;fill-rule:nonzero;"/><path d="M30.04,52.78l-6.81,-35.66l-2.7,0l0,-1.23l10.88,0l0,1.23l-2.53,0l4.07,23.83l4.07,-23.83l-2.56,0l0,-1.23l6.46,0l0,1.23l-2.53,0l-6.49,35.66l-1.86,0Z" style="fill:#fff;fill-rule:nonzero;"/><path d="M52.75,53.38c-1.71,-0 -3.16,-0.53 -4.37,-1.58c-1.21,-1.05 -2.19,-2.49 -2.97,-4.3c-0.77,-1.81 -1.34,-3.87 -1.7,-6.16c-0.36,-2.29 -0.54,-4.68 -0.54,-7.16c-0,-3.13 0.26,-5.87 0.79,-8.19c0.53,-2.33 1.23,-4.26 2.11,-5.79c0.88,-1.53 1.88,-2.67 3,-3.42c1.12,-0.75 2.28,-1.12 3.47,-1.12c1.43,-0 2.67,0.43 3.74,1.3c1.06,0.87 1.95,2.04 2.67,3.53c0.71,1.49 1.25,3.17 1.61,5.04c0.36,1.87 0.54,3.8 0.54,5.79c0,0.42 0,0.84 -0.02,1.25c-0.01,0.41 -0.03,0.83 -0.05,1.25l-13.02,-0l0,-1.23l7.83,-0c0,-3.25 -0.09,-6.05 -0.28,-8.41c-0.19,-2.35 -0.52,-4.16 -0.98,-5.42c-0.47,-1.26 -1.15,-1.89 -2.04,-1.89c-0.82,0 -1.53,0.61 -2.14,1.82c-0.61,1.22 -1.07,3.05 -1.39,5.51c-0.32,2.46 -0.47,5.56 -0.47,9.3c-0,2.5 0.05,4.87 0.14,7.09c0.09,2.22 0.3,4.19 0.63,5.91c0.33,1.72 0.82,3.07 1.47,4.05c0.65,0.98 1.53,1.47 2.63,1.47c1.71,0 3.05,-0.47 4.04,-1.4c0.98,-0.93 1.65,-1.92 2,-2.95l1.02,0.63c-0.47,1.36 -1.36,2.54 -2.67,3.56c-1.31,1.02 -2.99,1.53 -5.05,1.53l-0,-0.01Z" style="fill:#fff;fill-rule:nonzero;"/><path d="M75.17,53.38c-1.59,-0 -3.01,-0.53 -4.25,-1.58c-1.24,-1.05 -2.3,-2.49 -3.18,-4.32c-0.88,-1.83 -1.54,-3.9 -2,-6.21c-0.46,-2.32 -0.68,-4.75 -0.68,-7.3c0,-3.11 0.31,-5.81 0.93,-8.11c0.62,-2.29 1.44,-4.19 2.47,-5.7c1.03,-1.51 2.15,-2.64 3.37,-3.39c1.22,-0.75 2.43,-1.12 3.65,-1.12c1.47,0 2.73,0.43 3.75,1.28c1.03,0.85 1.81,1.97 2.35,3.35c0.54,1.38 0.81,2.86 0.81,4.42c0,1.19 -0.19,2.09 -0.56,2.7c-0.37,0.61 -0.91,0.91 -1.61,0.91c-0.7,-0 -1.29,-0.27 -1.68,-0.81c-0.4,-0.54 -0.6,-1.25 -0.6,-2.14c0,-0.63 0.1,-1.19 0.32,-1.68c0.21,-0.49 0.42,-0.96 0.63,-1.42c0.21,-0.46 0.32,-0.93 0.32,-1.42c0,-1.31 -0.33,-2.29 -0.98,-2.93c-0.66,-0.64 -1.49,-0.97 -2.49,-0.97c-1,-0 -1.77,0.52 -2.42,1.56c-0.66,1.04 -1.18,2.4 -1.58,4.07c-0.4,1.67 -0.68,3.49 -0.86,5.46c-0.18,1.97 -0.26,3.87 -0.26,5.72c0,1.85 0.07,3.91 0.21,6.04c0.14,2.13 0.4,4.12 0.77,5.97c0.37,1.85 0.91,3.35 1.61,4.51c0.7,1.16 1.6,1.74 2.7,1.74c1.4,-0 2.51,-0.46 3.33,-1.39c0.82,-0.92 1.36,-1.88 1.61,-2.86l0.98,0.67c-0.44,1.29 -1.22,2.43 -2.32,3.44c-1.1,1.01 -2.55,1.51 -4.35,1.51l0.01,-0Z" style="fill:#fff;fill-rule:nonzero;"/><path d="M95.35,70.19l0,-1.23l3.23,0l0,-51.83l-3.23,0l0,-1.23l8.49,0l0,4.53c0.16,-0.54 0.44,-1.18 0.82,-1.91c0.39,-0.74 0.92,-1.39 1.61,-1.97c0.69,-0.57 1.57,-0.86 2.65,-0.86c1.36,0 2.63,0.63 3.81,1.88c1.18,1.25 2.14,3.25 2.88,6c0.74,2.75 1.11,6.38 1.11,10.9c0,4.52 -0.39,8.33 -1.16,11.09c-0.77,2.76 -1.78,4.75 -3.04,5.97c-1.25,1.22 -2.61,1.82 -4.09,1.82c-1.01,0 -1.82,-0.27 -2.46,-0.81c-0.64,-0.54 -1.11,-1.18 -1.44,-1.91c-0.33,-0.74 -0.54,-1.37 -0.63,-1.91l0,20.25l3.3,0l0,1.23l-11.86,0l0.01,-0.01Zm12.35,-18.46c0.63,-0 1.18,-0.4 1.63,-1.21c0.46,-0.81 0.84,-1.96 1.14,-3.46c0.3,-1.5 0.53,-3.3 0.67,-5.4c0.14,-2.11 0.21,-4.46 0.21,-7.05c0,-2.36 -0.07,-4.57 -0.21,-6.62c-0.14,-2.05 -0.36,-3.85 -0.65,-5.4c-0.29,-1.56 -0.66,-2.77 -1.11,-3.65c-0.44,-0.88 -0.96,-1.32 -1.54,-1.32c-0.77,-0 -1.43,0.39 -1.97,1.16c-0.54,0.77 -0.96,1.71 -1.28,2.83c-0.32,1.12 -0.54,2.19 -0.68,3.25l-0,18.25c0.07,1.36 0.25,2.7 0.54,4.02c0.29,1.32 0.71,2.42 1.26,3.3c0.55,0.88 1.21,1.32 1.98,1.32l0.01,-0.02Z" style="fill:#fff;fill-rule:nonzero;"/><path d="M119.15,52.64l0,-1.23l2.91,-0l0,-50.18l-2.91,-0l0,-1.23l8.14,-0l0,51.41l2.95,-0l0,1.23l-11.09,-0Z" style="fill:#fff;fill-rule:nonzero;"/><path d="M140.87,53.38c-1.31,-0 -2.51,-0.31 -3.6,-0.93c-1.09,-0.62 -1.95,-1.58 -2.6,-2.88c-0.64,-1.3 -0.96,-2.95 -0.96,-4.97c0,-2.22 0.42,-4.06 1.25,-5.53c0.83,-1.46 1.86,-2.68 3.09,-3.67c1.23,-0.99 2.46,-1.87 3.68,-2.67c1.23,-0.79 2.26,-1.62 3.09,-2.47c0.83,-0.85 1.25,-1.9 1.25,-3.14c0,-1.78 -0.12,-3.44 -0.35,-4.98c-0.23,-1.54 -0.64,-2.78 -1.21,-3.72c-0.57,-0.94 -1.4,-1.4 -2.47,-1.4c-1.07,0 -2.11,0.42 -2.95,1.25c-0.84,0.83 -1.26,1.8 -1.26,2.9c0,0.56 0.09,1.05 0.26,1.46c0.17,0.41 0.34,0.83 0.49,1.25c0.15,0.42 0.23,0.92 0.23,1.51c0,0.87 -0.19,1.57 -0.56,2.12c-0.37,0.55 -0.94,0.83 -1.68,0.83c-0.74,0 -1.3,-0.32 -1.67,-0.95c-0.36,-0.63 -0.54,-1.51 -0.54,-2.63c0,-1.64 0.36,-3.15 1.07,-4.53c0.71,-1.38 1.71,-2.49 3,-3.32c1.29,-0.83 2.77,-1.25 4.46,-1.25c1.69,0 3.12,0.42 4.39,1.25c1.26,0.83 2.26,2.12 2.98,3.88c0.72,1.75 1.09,4.02 1.09,6.81l0,21.41c0,0.94 0.13,1.6 0.39,1.98c0.26,0.39 0.6,0.58 1.02,0.58c0.3,0 0.6,-0.08 0.9,-0.25c0.29,-0.16 0.52,-0.32 0.68,-0.46l0.63,1.05c-0.23,0.28 -0.7,0.55 -1.4,0.81c-0.7,0.26 -1.53,0.39 -2.49,0.39c-0.84,0 -1.6,-0.13 -2.28,-0.4c-0.68,-0.27 -1.23,-0.69 -1.65,-1.26c-0.42,-0.57 -0.64,-1.29 -0.67,-2.16c-0.14,0.49 -0.42,1.06 -0.84,1.7c-0.42,0.64 -1.02,1.21 -1.79,1.68c-0.77,0.48 -1.75,0.72 -2.95,0.72l-0.03,-0.01Zm1.61,-2.04c0.68,-0 1.29,-0.25 1.82,-0.75c0.54,-0.5 0.97,-1.11 1.28,-1.82c0.32,-0.71 0.47,-1.4 0.47,-2.05l-0,-16.5c-0.07,0.66 -0.46,1.36 -1.16,2.11c-0.7,0.75 -1.5,1.63 -2.39,2.63c-0.89,1.01 -1.67,2.23 -2.35,3.67c-0.68,1.44 -1.02,3.17 -1.02,5.18c-0,2.39 0.25,4.24 0.74,5.56c0.49,1.32 1.36,1.98 2.6,1.98l0.01,-0.01Z" style="fill:#fff;fill-rule:nonzero;"/><path d="M156.45,52.64l0,-1.23l3.3,-0l0,-34.29l-3.3,0l0,-1.23l8.56,0l0,35.52l3.37,0l0,1.23l-11.93,0Zm5.89,-43.55c-1.05,0 -1.94,-0.36 -2.67,-1.07c-0.73,-0.71 -1.09,-1.58 -1.09,-2.61c0,-1.03 0.36,-1.91 1.09,-2.63c0.72,-0.73 1.61,-1.09 2.67,-1.09c0.98,-0 1.83,0.36 2.54,1.09c0.71,0.73 1.07,1.6 1.07,2.63c0,1.03 -0.36,1.9 -1.07,2.61c-0.71,0.71 -1.56,1.07 -2.54,1.07Z" style="fill:#fff;fill-rule:nonzero;"/><path d="M178.7,53.41c-1.08,-0 -1.98,-0.16 -2.72,-0.47c-0.74,-0.32 -1.35,-0.62 -1.84,-0.93c-0.49,-0.3 -0.91,-0.46 -1.26,-0.46c-0.26,-0 -0.44,0.09 -0.54,0.28c-0.11,0.19 -0.17,0.46 -0.19,0.81l-1.02,-0l0,-10.42l1.23,-0c0.12,1.33 0.33,2.6 0.63,3.81c0.3,1.21 0.72,2.27 1.25,3.19c0.53,0.92 1.16,1.65 1.89,2.18c0.74,0.53 1.6,0.79 2.58,0.79c0.98,-0 1.77,-0.27 2.35,-0.81c0.58,-0.54 1.01,-1.22 1.26,-2.05c0.25,-0.83 0.39,-1.68 0.39,-2.54c0,-1.12 -0.21,-2.25 -0.63,-3.39c-0.42,-1.13 -1.03,-2.29 -1.83,-3.46c-0.8,-1.17 -1.74,-2.34 -2.84,-3.51c-1.78,-1.94 -3.25,-3.93 -4.4,-5.97c-1.15,-2.04 -1.74,-4.36 -1.74,-6.98c0,-1.75 0.35,-3.21 1.05,-4.37c0.7,-1.16 1.61,-2.02 2.74,-2.6c1.12,-0.57 2.32,-0.86 3.58,-0.86c0.89,0 1.63,0.11 2.23,0.33c0.6,0.22 1.09,0.45 1.47,0.67c0.39,0.22 0.7,0.33 0.93,0.33c0.21,0 0.36,-0.09 0.46,-0.28c0.09,-0.19 0.15,-0.46 0.17,-0.81l1.09,0l0,10.11l-1.23,0c-0.12,-1.43 -0.3,-2.7 -0.54,-3.83c-0.25,-1.12 -0.57,-2.08 -0.97,-2.86c-0.4,-0.78 -0.89,-1.39 -1.47,-1.81c-0.58,-0.42 -1.29,-0.63 -2.11,-0.63c-1.17,0 -2.13,0.42 -2.88,1.26c-0.75,0.84 -1.12,2.05 -1.12,3.62c0,1.57 0.47,3.15 1.42,4.68c0.95,1.53 2.22,3.15 3.81,4.86c1.31,1.4 2.45,2.79 3.42,4.16c0.97,1.37 1.72,2.78 2.25,4.23c0.53,1.45 0.79,3.02 0.79,4.7c0,1.85 -0.32,3.45 -0.95,4.79c-0.63,1.35 -1.52,2.39 -2.67,3.12c-1.15,0.74 -2.49,1.11 -4.04,1.11l0,0.01Z" style="fill:#fff;fill-rule:nonzero;"/><path d="M189.12,52.64l0,-1.23l3.3,-0l0,-34.29l-3.3,0l0,-1.23l8.56,0l0,35.52l3.37,0l0,1.23l-11.93,0Zm5.9,-43.55c-1.05,0 -1.94,-0.36 -2.67,-1.07c-0.72,-0.71 -1.09,-1.58 -1.09,-2.61c0,-1.03 0.36,-1.91 1.09,-2.63c0.73,-0.73 1.61,-1.09 2.67,-1.09c0.98,-0 1.83,0.36 2.54,1.09c0.71,0.73 1.07,1.6 1.07,2.63c0,1.03 -0.36,1.9 -1.07,2.61c-0.71,0.71 -1.56,1.07 -2.54,1.07Z" style="fill:#fff;fill-rule:nonzero;"/><path d="M202.88,52.65l0,-1.24l3.26,0l0,-34.29l-3.26,0l0,-1.23l8.39,0l0.07,4.11c0.07,-0.3 0.29,-0.81 0.67,-1.51c0.37,-0.7 0.92,-1.35 1.63,-1.95c0.71,-0.6 1.57,-0.89 2.58,-0.89c1.15,0 2.1,0.42 2.86,1.25c0.76,0.83 1.33,1.94 1.72,3.32c0.39,1.38 0.58,2.9 0.58,4.56c0,1.12 -0.19,2 -0.58,2.62c-0.39,0.62 -0.94,0.93 -1.67,0.93c-0.73,0 -1.24,-0.29 -1.61,-0.88c-0.37,-0.58 -0.56,-1.33 -0.56,-2.25c0,-0.58 0.1,-1.11 0.3,-1.58c0.2,-0.47 0.39,-0.94 0.58,-1.4c0.19,-0.47 0.28,-0.99 0.28,-1.58c0,-1.24 -0.22,-2.15 -0.67,-2.72c-0.45,-0.57 -1.01,-0.86 -1.68,-0.86c-0.89,0 -1.66,0.43 -2.32,1.28c-0.66,0.85 -1.16,1.91 -1.51,3.18c-0.35,1.26 -0.53,2.52 -0.53,3.75l0,26.15l3.33,0l0,1.23l-11.86,0Z" style="fill:#fff;fill-rule:nonzero;"/></g></svg>